<svg width="7" height="7" viewBox="0 0 7 7" fill="none" xmlns="http://www.w3.org/2000/svg">
<path d="M7 3.5C7 4.42826 6.63125 5.3185 5.97487 5.97487C5.3185 6.63125 4.42826 7 3.5 7C2.57174 7 1.6815 6.63125 1.02513 5.97487C0.368749 5.3185 0 4.42826 0 3.5C0 2.57174 0.368749 1.6815 1.02513 1.02513C1.6815 0.368749 2.57174 0 3.5 0C4.42826 0 5.3185 0.368749 5.97487 1.02513C6.63125 1.6815 7 2.57174 7 3.5V3.5ZM1.5 3.5C1.5 3.63261 1.55268 3.75979 1.64645 3.85355C1.74021 3.94732 1.86739 4 2 4H5C5.13261 4 5.25979 3.94732 5.35355 3.85355C5.44732 3.75979 5.5 3.63261 5.5 3.5C5.5 3.36739 5.44732 3.24021 5.35355 3.14645C5.25979 3.05268 5.13261 3 5 3H2C1.86739 3 1.74021 3.05268 1.64645 3.14645C1.55268 3.24021 1.5 3.36739 1.5 3.5Z" fill="#E04444"/>
</svg>
