<svg width="16" height="16" viewBox="0 0 16 16" fill="none" xmlns="http://www.w3.org/2000/svg">
<path d="M15.6683 0.685806C15.7047 0.594942 15.7136 0.495402 15.6939 0.399526C15.6742 0.303649 15.6269 0.215653 15.5576 0.146447C15.4884 0.0772403 15.4004 0.0298668 15.3046 0.0101994C15.2087 -0.0094681 15.1092 -0.000564594 15.0183 0.0358061L0.471288 5.85481C0.343177 5.90609 0.231698 5.99172 0.149119 6.10227C0.0665401 6.21283 0.0160632 6.34402 0.00324374 6.48142C-0.00957573 6.61882 0.0157593 6.75709 0.0764603 6.88101C0.137161 7.00494 0.230875 7.10971 0.347288 7.18381L5.34229 10.3618L6.87329 12.7678C6.9456 12.877 7.05785 12.9534 7.18592 12.9807C7.31399 13.008 7.44765 12.984 7.55819 12.9138C7.66873 12.8436 7.74732 12.7328 7.77707 12.6053C7.80682 12.4778 7.78535 12.3437 7.71729 12.2318L6.34129 10.0698L13.8353 2.57581L11.9403 7.31381C11.9143 7.37504 11.9007 7.44085 11.9004 7.50738C11.9001 7.57392 11.9132 7.63984 11.9387 7.70128C11.9642 7.76273 12.0017 7.81846 12.0491 7.86521C12.0964 7.91196 12.1526 7.9488 12.2144 7.97355C12.2761 7.99831 12.3422 8.01049 12.4087 8.00938C12.4753 8.00828 12.5409 7.9939 12.6018 7.9671C12.6627 7.9403 12.7176 7.90162 12.7634 7.85332C12.8092 7.80502 12.8448 7.74807 12.8683 7.68581L15.6683 0.685806V0.685806ZM13.1283 1.86881L5.63429 9.36281L1.29529 6.60181L13.1283 1.86881V1.86881Z" fill="#E04444"/>
<path d="M15.7043 12.4998C15.7043 13.428 15.3355 14.3183 14.6792 14.9746C14.0228 15.631 13.1325 15.9998 12.2043 15.9998C11.276 15.9998 10.3858 15.631 9.72941 14.9746C9.07303 14.3183 8.70428 13.428 8.70428 12.4998C8.70428 11.5715 9.07303 10.6813 9.72941 10.0249C10.3858 9.36851 11.276 8.99976 12.2043 8.99976C13.1325 8.99976 14.0228 9.36851 14.6792 10.0249C15.3355 10.6813 15.7043 11.5715 15.7043 12.4998V12.4998ZM10.2043 12.4998C10.2043 12.6324 10.257 12.7595 10.3507 12.8533C10.4445 12.9471 10.5717 12.9998 10.7043 12.9998H13.7043C13.8369 12.9998 13.9641 12.9471 14.0578 12.8533C14.1516 12.7595 14.2043 12.6324 14.2043 12.4998C14.2043 12.3671 14.1516 12.24 14.0578 12.1462C13.9641 12.0524 13.8369 11.9998 13.7043 11.9998H10.7043C10.5717 11.9998 10.4445 12.0524 10.3507 12.1462C10.257 12.24 10.2043 12.3671 10.2043 12.4998Z" fill="#E04444"/>
</svg>
