<svg width="16" height="16" viewBox="0 0 16 16" fill="none" xmlns="http://www.w3.org/2000/svg">
<path d="M15.6683 0.685806C15.7047 0.594942 15.7136 0.495402 15.6939 0.399526C15.6742 0.303649 15.6269 0.215653 15.5576 0.146447C15.4884 0.0772403 15.4004 0.0298668 15.3046 0.0101994C15.2087 -0.0094681 15.1092 -0.000564594 15.0183 0.0358061L0.471288 5.85481C0.343177 5.90609 0.231698 5.99172 0.149119 6.10227C0.0665401 6.21283 0.0160632 6.34402 0.00324374 6.48142C-0.00957573 6.61882 0.0157593 6.75709 0.0764603 6.88101C0.137161 7.00494 0.230875 7.10971 0.347288 7.18381L5.34229 10.3618L6.87329 12.7678C6.9456 12.877 7.05785 12.9534 7.18592 12.9807C7.31399 13.008 7.44765 12.984 7.55819 12.9138C7.66873 12.8436 7.74732 12.7328 7.77707 12.6053C7.80682 12.4778 7.78535 12.3437 7.71729 12.2318L6.34129 10.0698L13.8353 2.57581L11.9403 7.31381C11.9143 7.37504 11.9007 7.44085 11.9004 7.50738C11.9001 7.57392 11.9132 7.63984 11.9387 7.70128C11.9642 7.76273 12.0017 7.81846 12.0491 7.86521C12.0964 7.91196 12.1526 7.9488 12.2144 7.97355C12.2761 7.99831 12.3422 8.01049 12.4087 8.00938C12.4753 8.00828 12.5409 7.9939 12.6018 7.9671C12.6627 7.9403 12.7176 7.90162 12.7634 7.85332C12.8092 7.80502 12.8448 7.74807 12.8683 7.68581L15.6683 0.685806V0.685806ZM13.1283 1.86881L5.63429 9.36281L1.29529 6.60181L13.1283 1.86881V1.86881Z" fill="#43C921"/>
<path d="M15.7043 12.4998C15.7043 13.428 15.3355 14.3183 14.6792 14.9746C14.0228 15.631 13.1325 15.9998 12.2043 15.9998C11.276 15.9998 10.3858 15.631 9.72941 14.9746C9.07303 14.3183 8.70428 13.428 8.70428 12.4998C8.70428 11.5715 9.07303 10.6813 9.72941 10.0249C10.3858 9.36851 11.276 8.99976 12.2043 8.99976C13.1325 8.99976 14.0228 9.36851 14.6792 10.0249C15.3355 10.6813 15.7043 11.5715 15.7043 12.4998V12.4998ZM13.7113 10.8208C13.655 10.787 13.5925 10.7647 13.5276 10.755C13.4626 10.7454 13.3964 10.7487 13.3327 10.7646C13.2689 10.7806 13.209 10.809 13.1563 10.8481C13.1035 10.8873 13.059 10.9364 13.0253 10.9928L11.8553 12.9428L11.3083 12.3958C11.2144 12.3019 11.0871 12.2491 10.9543 12.2491C10.8215 12.2491 10.6942 12.3019 10.6003 12.3958C10.5064 12.4896 10.4537 12.617 10.4537 12.7498C10.4537 12.8825 10.5064 13.0099 10.6003 13.1038L11.3743 13.8768C11.4548 13.9575 11.5528 14.0188 11.6606 14.0559C11.7684 14.0931 11.8832 14.1052 11.9964 14.0914C12.1096 14.0775 12.2182 14.038 12.3138 13.9758C12.4094 13.9137 12.4896 13.8306 12.5483 13.7328L13.8833 11.5068C13.917 11.4504 13.9394 11.388 13.949 11.323C13.9586 11.2581 13.9554 11.1918 13.9394 11.1281C13.9234 11.0644 13.8951 11.0045 13.8559 10.9517C13.8168 10.899 13.7676 10.8545 13.7113 10.8208V10.8208Z" fill="#43C921"/>
</svg>
