<svg width="7" height="7" viewBox="0 0 7 7" fill="none" xmlns="http://www.w3.org/2000/svg">
<path d="M7 3.5C7 4.42826 6.63125 5.3185 5.97487 5.97487C5.3185 6.63125 4.42826 7 3.5 7C2.57174 7 1.6815 6.63125 1.02513 5.97487C0.368749 5.3185 0 4.42826 0 3.5C0 2.57174 0.368749 1.6815 1.02513 1.02513C1.6815 0.368749 2.57174 0 3.5 0C4.42826 0 5.3185 0.368749 5.97487 1.02513C6.63125 1.6815 7 2.57174 7 3.5V3.5ZM5.007 1.821C4.95067 1.78724 4.88823 1.76491 4.82327 1.75528C4.7583 1.74565 4.69207 1.74892 4.62837 1.76489C4.56466 1.78086 4.50473 1.80923 4.45199 1.84837C4.39925 1.88751 4.35474 1.93665 4.321 1.993L3.151 3.943L2.604 3.396C2.51011 3.30211 2.38278 3.24937 2.25 3.24937C2.11722 3.24937 1.98989 3.30211 1.896 3.396C1.80211 3.48989 1.74937 3.61722 1.74937 3.75C1.74937 3.88278 1.80211 4.01011 1.896 4.104L2.67 4.877C2.75056 4.95772 2.84847 5.019 2.95628 5.05619C3.06409 5.09338 3.17896 5.10549 3.29215 5.09161C3.40535 5.07772 3.51389 5.03821 3.60951 4.97607C3.70514 4.91393 3.78533 4.8308 3.844 4.733L5.179 2.507C5.21276 2.45067 5.23509 2.38823 5.24472 2.32327C5.25435 2.2583 5.25108 2.19207 5.23511 2.12837C5.21914 2.06466 5.19077 2.00473 5.15163 1.95199C5.11249 1.89925 5.06335 1.85474 5.007 1.821V1.821Z" fill="#43C921"/>
</svg>
